# Blender v2.80 (sub 53) OBJ File: ''
# www.blender.org
mtllib note_left.mtl
o Cube.000_Cube.003
v -1.000000 1.000000 0.115129
v -1.000000 -1.000000 -0.115129
v -1.000000 -1.000000 0.115129
v -0.776877 -0.776877 -0.115129
v -1.000000 1.000000 -0.115129
v -0.776877 0.776877 -0.115129
v -0.776877 0.776877 0.115129
v -0.776877 -0.776877 0.115129
v -0.000000 1.000000 -0.000000
v 0.000000 1.000000 0.115129
v 0.000000 -1.000000 0.000000
v -0.000000 -1.000000 -0.115129
v -0.000000 -0.776877 -0.115129
v -0.000000 -0.874430 -0.115129
v 0.000000 0.776877 0.115129
v 0.000000 0.874430 0.115129
v -0.000000 0.776877 -0.115129
v -0.000000 0.874430 -0.115129
v 0.000000 -0.776877 0.115129
v 0.000000 -0.874430 0.115129
v 0.000000 -0.776877 0.000000
v -0.000000 0.776877 -0.000000
v -0.000000 1.000000 -0.115129
v 0.000000 -1.000000 0.115129
vt 0.500000 0.125000
vt 0.375000 0.250000
vt 0.375000 0.125000
vt 0.625000 0.250000
vt 0.375000 0.500000
vt 0.375000 0.250000
vt 0.500000 0.875000
vt 0.375000 1.000000
vt 0.375000 0.875000
vt 0.390696 0.625000
vt 0.402890 0.527890
vt 0.402890 0.625000
vt 0.625000 0.500000
vt 0.597110 0.527890
vt 0.347110 0.722110
vt 0.125000 0.750000
vt 0.152890 0.722110
vt 0.359304 0.625000
vt 0.347110 0.625000
vt 0.625000 0.250000
vt 0.625000 0.125000
vt 0.625000 1.000000
vt 0.625000 0.875000
vt 0.375000 0.625000
vt 0.375000 0.750000
vt 0.375000 0.625000
vt 0.125000 0.625000
vt 0.140696 0.625000
vt 0.152890 0.625000
vt 0.277890 0.527890
vt 0.625000 0.625000
vt 0.609304 0.625000
vt 0.597110 0.625000
vt 0.472110 0.722110
vn 0.0000 1.0000 0.0000
vn -1.0000 0.0000 0.0000
vn 0.0000 -1.0000 0.0000
vn -0.0000 -0.0000 -1.0000
vn 0.0000 0.0000 1.0000
vn 1.0000 -0.0000 0.0000
usemtl (null)
s 1
f 9/1/1 1/2/1 10/3/1
f 1/4/2 2/5/2 3/6/2
f 11/7/3 2/8/3 12/9/3
f 14/10/4 4/11/4 13/12/4
f 4/11/4 5/13/4 6/14/4
f 7/15/5 3/16/5 8/17/5
f 16/18/5 7/15/5 15/19/5
f 6/14/6 8/17/6 4/11/6
f 5/20/1 9/1/1 23/21/1
f 1/4/2 5/13/2 2/5/2
f 3/22/3 11/7/3 24/23/3
f 14/10/4 12/24/4 2/5/4
f 4/11/4 2/5/4 5/13/4
f 7/15/5 1/25/5 3/16/5
f 16/18/5 10/26/5 1/25/5
f 6/14/6 7/15/6 8/17/6
f 8/17/5 24/27/5 20/28/5
f 8/17/5 20/28/5 19/29/5
f 8/17/1 21/30/1 4/11/1
f 6/14/4 23/31/4 18/32/4
f 6/14/4 18/32/4 17/33/4
f 6/14/3 22/34/3 7/15/3
f 7/15/3 22/34/3 15/19/3
f 4/11/1 21/30/1 13/12/1
f 21/30/2 14/10/2 11/7/2
f 9/1/2 18/32/2 22/34/2
f 14/10/4 2/5/4 4/11/4
f 16/18/5 1/25/5 7/15/5
f 5/20/1 1/2/1 9/1/1
f 3/22/3 2/8/3 11/7/3
f 8/17/5 3/16/5 24/27/5
f 8/17/1 19/29/1 21/30/1
f 6/14/4 5/13/4 23/31/4
f 6/14/3 17/33/3 22/34/3
f 24/23/2 20/28/2 11/7/2
f 20/28/2 19/29/2 21/30/2
f 21/30/2 13/12/2 14/10/2
f 20/28/2 21/30/2 11/7/2
f 14/10/2 12/24/2 11/7/2
f 15/19/2 16/18/2 22/34/2
f 16/18/2 10/26/2 9/1/2
f 9/1/2 23/21/2 18/32/2
f 16/18/2 9/1/2 22/34/2
f 18/32/2 17/33/2 22/34/2
